<svg width="15" height="14" viewBox="0 0 15 14" fill="none" xmlns="http://www.w3.org/2000/svg">
<g clip-path="url(#clip0_6459_17242)">
<path d="M4.4375 2.18133V11.8195C4.43893 11.8964 4.46061 11.9715 4.50036 12.0374C4.54011 12.1033 4.59652 12.1575 4.6639 12.1946C4.73129 12.2317 4.80726 12.2504 4.88417 12.2487C4.96108 12.2471 5.0362 12.2252 5.10195 12.1853L12.9813 7.36625C13.0443 7.32816 13.0963 7.27447 13.1324 7.21038C13.1686 7.14629 13.1875 7.07396 13.1875 7.00039C13.1875 6.92682 13.1686 6.85449 13.1324 6.7904C13.0963 6.72631 13.0443 6.67263 12.9813 6.63453L5.10195 1.81547C5.0362 1.77555 4.96108 1.75368 4.88417 1.75205C4.80726 1.75043 4.73129 1.76911 4.6639 1.80621C4.59652 1.84331 4.54011 1.89753 4.50036 1.96338C4.46061 2.02924 4.43893 2.10442 4.4375 2.18133Z" stroke="white" stroke-linecap="round" stroke-linejoin="round"/>
</g>
<defs>
<clipPath id="clip0_6459_17242">
<rect width="14" height="14" fill="white" transform="translate(0.5)"/>
</clipPath>
</defs>
</svg>
