<svg width="18" height="19" viewBox="0 0 18 19" fill="none" xmlns="http://www.w3.org/2000/svg">
<g clip-path="url(#clip0_1577_17152)">
<path d="M14.625 10.625H3.375C3.06434 10.625 2.8125 10.8768 2.8125 11.1875V14.5625C2.8125 14.8732 3.06434 15.125 3.375 15.125H14.625C14.9357 15.125 15.1875 14.8732 15.1875 14.5625V11.1875C15.1875 10.8768 14.9357 10.625 14.625 10.625Z" stroke="white" stroke-linecap="round" stroke-linejoin="round"/>
<path d="M14.625 3.875H3.375C3.06434 3.875 2.8125 4.12684 2.8125 4.4375V7.8125C2.8125 8.12316 3.06434 8.375 3.375 8.375H14.625C14.9357 8.375 15.1875 8.12316 15.1875 7.8125V4.4375C15.1875 4.12684 14.9357 3.875 14.625 3.875Z" stroke="white" stroke-linecap="round" stroke-linejoin="round"/>
<path d="M12.6562 13.4375C12.9669 13.4375 13.2188 13.1857 13.2188 12.875C13.2188 12.5643 12.9669 12.3125 12.6562 12.3125C12.3456 12.3125 12.0938 12.5643 12.0938 12.875C12.0938 13.1857 12.3456 13.4375 12.6562 13.4375Z" fill="white"/>
<path d="M12.6562 6.6875C12.9669 6.6875 13.2188 6.43566 13.2188 6.125C13.2188 5.81434 12.9669 5.5625 12.6562 5.5625C12.3456 5.5625 12.0938 5.81434 12.0938 6.125C12.0938 6.43566 12.3456 6.6875 12.6562 6.6875Z" fill="white"/>
</g>
<defs>
<clipPath id="clip0_1577_17152">
<rect width="18" height="18" fill="white" transform="translate(0 0.5)"/>
</clipPath>
</defs>
</svg>
