<svg width="25" height="24" viewBox="0 0 25 24" fill="none" xmlns="http://www.w3.org/2000/svg">
<g clip-path="url(#clip0_795_30419)">
<path d="M18.6665 11.25C19.5399 11.2493 20.4014 11.4524 21.1825 11.843C21.9637 12.2335 22.643 12.8009 23.1665 13.5" stroke="white" stroke-linecap="round" stroke-linejoin="round"/>
<path d="M2.1665 13.5C2.69 12.8009 3.36932 12.2335 4.15048 11.843C4.93165 11.4524 5.79313 11.2493 6.6665 11.25" stroke="white" stroke-linecap="round" stroke-linejoin="round"/>
<path d="M12.6665 17.25C14.7376 17.25 16.4165 15.5711 16.4165 13.5C16.4165 11.4289 14.7376 9.75 12.6665 9.75C10.5954 9.75 8.9165 11.4289 8.9165 13.5C8.9165 15.5711 10.5954 17.25 12.6665 17.25Z" stroke="white" stroke-linecap="round" stroke-linejoin="round"/>
<path d="M7.4165 20.25C7.9549 19.3364 8.72241 18.579 9.64316 18.0529C10.5639 17.5267 11.606 17.25 12.6665 17.25C13.727 17.25 14.7691 17.5267 15.6898 18.0529C16.6106 18.579 17.3781 19.3364 17.9165 20.25" stroke="white" stroke-linecap="round" stroke-linejoin="round"/>
<path d="M15.7603 7.5C15.9005 6.95678 16.1903 6.46377 16.5967 6.07697C17.0031 5.69017 17.5098 5.42508 18.0592 5.31179C18.6087 5.19851 19.179 5.24158 19.7052 5.43611C20.2314 5.63064 20.6926 5.96883 21.0362 6.41229C21.3799 6.85574 21.5924 7.38668 21.6494 7.9448C21.7065 8.50293 21.6059 9.06587 21.3591 9.56971C21.1123 10.0735 20.7292 10.4981 20.2532 10.7951C19.7773 11.0921 19.2275 11.2497 18.6665 11.25" stroke="white" stroke-linecap="round" stroke-linejoin="round"/>
<path d="M6.66646 11.25C6.10542 11.2497 5.55571 11.0921 5.07974 10.7951C4.60378 10.4981 4.22064 10.0735 3.97383 9.56971C3.72703 9.06587 3.62646 8.50293 3.68354 7.9448C3.74061 7.38668 3.95305 6.85574 4.29672 6.41229C4.6404 5.96883 5.10154 5.63064 5.62777 5.43611C6.154 5.24158 6.72424 5.19851 7.27372 5.31179C7.8232 5.42508 8.32991 5.69017 8.73629 6.07697C9.14267 6.46377 9.43245 6.95678 9.57271 7.5" stroke="white" stroke-linecap="round" stroke-linejoin="round"/>
</g>
<defs>
<clipPath id="clip0_795_30419">
<rect width="24" height="24" fill="white" transform="translate(0.666504)"/>
</clipPath>
</defs>
</svg>
