<svg width="24" height="24" viewBox="0 0 24 24" fill="none" xmlns="http://www.w3.org/2000/svg">
<g clip-path="url(#clip0_795_31046)">
<path d="M19.0835 5.25H5.5835C4.34086 5.25 3.3335 6.25736 3.3335 7.5V18C3.3335 19.2426 4.34086 20.25 5.5835 20.25H19.0835C20.3261 20.25 21.3335 19.2426 21.3335 18V7.5C21.3335 6.25736 20.3261 5.25 19.0835 5.25Z" stroke="white" stroke-linecap="round" stroke-linejoin="round"/>
<path d="M12.3335 5.25V1.5" stroke="white" stroke-linecap="round" stroke-linejoin="round"/>
<path d="M8.2085 10.875C8.62271 10.875 8.9585 10.5392 8.9585 10.125C8.9585 9.71079 8.62271 9.375 8.2085 9.375C7.79428 9.375 7.4585 9.71079 7.4585 10.125C7.4585 10.5392 7.79428 10.875 8.2085 10.875Z" fill="white"/>
<path d="M16.4585 10.875C16.8727 10.875 17.2085 10.5392 17.2085 10.125C17.2085 9.71079 16.8727 9.375 16.4585 9.375C16.0443 9.375 15.7085 9.71079 15.7085 10.125C15.7085 10.5392 16.0443 10.875 16.4585 10.875Z" fill="white"/>
<path d="M15.7085 13.5H8.9585C7.92296 13.5 7.0835 14.3395 7.0835 15.375C7.0835 16.4105 7.92296 17.25 8.9585 17.25H15.7085C16.744 17.25 17.5835 16.4105 17.5835 15.375C17.5835 14.3395 16.744 13.5 15.7085 13.5Z" stroke="white" stroke-linecap="round" stroke-linejoin="round"/>
<path d="M14.2085 13.5V17.25" stroke="white" stroke-linecap="round" stroke-linejoin="round"/>
<path d="M10.4585 13.5V17.25" stroke="white" stroke-linecap="round" stroke-linejoin="round"/>
</g>
<defs>
<clipPath id="clip0_795_31046">
<rect width="24" height="24" fill="white"/>
</clipPath>
</defs>
</svg>
