<svg width="25" height="24" viewBox="0 0 25 24" fill="none" xmlns="http://www.w3.org/2000/svg">
<g clip-path="url(#clip0_795_31092)">
<path d="M12.7575 6.65874L7.32561 12.0907C6.44693 12.9693 6.44693 14.394 7.32561 15.2726L9.3939 17.3409C10.2726 18.2196 11.6972 18.2196 12.5759 17.3409L18.0078 11.909C18.8865 11.0303 18.8865 9.60571 18.0078 8.72703L15.9395 6.65874C15.0608 5.78006 13.6362 5.78006 12.7575 6.65874Z" stroke="white" stroke-linecap="round" stroke-linejoin="round"/>
<path d="M8.91675 8.25L16.4167 15.75" stroke="white" stroke-linecap="round" stroke-linejoin="round"/>
<path d="M22.4168 2.25L16.9736 7.69312" stroke="white" stroke-linecap="round" stroke-linejoin="round"/>
<path d="M8.35987 16.3066L2.91675 21.7498" stroke="white" stroke-linecap="round" stroke-linejoin="round"/>
<path d="M9.66675 3L10.4167 4.875" stroke="white" stroke-linecap="round" stroke-linejoin="round"/>
<path d="M3.66675 9L5.54175 9.75" stroke="white" stroke-linecap="round" stroke-linejoin="round"/>
<path d="M19.7917 14.25L21.6667 15" stroke="white" stroke-linecap="round" stroke-linejoin="round"/>
<path d="M14.9167 19.125L15.6667 21" stroke="white" stroke-linecap="round" stroke-linejoin="round"/>
</g>
<defs>
<clipPath id="clip0_795_31092">
<rect width="24" height="24" fill="white" transform="translate(0.666748)"/>
</clipPath>
</defs>
</svg>
