<svg width="32" height="32" viewBox="0 0 32 32" fill="none" xmlns="http://www.w3.org/2000/svg">
<g clip-path="url(#clip0_1626_18013)">
<path d="M4.08789 9.61499L16.0004 16.135L27.9129 9.61499" stroke="#9E9E9E" stroke-linecap="round" stroke-linejoin="round"/>
<path d="M16.48 3.12505L27.48 9.14755C27.6371 9.23349 27.7682 9.36003 27.8597 9.51394C27.9511 9.66786 27.9996 9.84351 28 10.0226V21.9776C27.9996 22.1566 27.9511 22.3322 27.8597 22.4862C27.7682 22.6401 27.6371 22.7666 27.48 22.8526L16.48 28.8751C16.3328 28.9556 16.1678 28.9978 16 28.9978C15.8322 28.9978 15.6672 28.9556 15.52 28.8751L4.52 22.8526C4.36293 22.7666 4.23181 22.6401 4.14035 22.4862C4.04888 22.3322 4.00041 22.1566 4 21.9776V10.0226C4.00041 9.84351 4.04888 9.66786 4.14035 9.51394C4.23181 9.36003 4.36293 9.23349 4.52 9.14755L15.52 3.12505C15.6672 3.04453 15.8322 3.00232 16 3.00232C16.1678 3.00232 16.3328 3.04453 16.48 3.12505Z" stroke="#9E9E9E" stroke-linecap="round" stroke-linejoin="round"/>
<path d="M16 16.1362V29" stroke="#9E9E9E" stroke-linecap="round" stroke-linejoin="round"/>
</g>
<defs>
<clipPath id="clip0_1626_18013">
<rect width="32" height="32" fill="white"/>
</clipPath>
</defs>
</svg>
