<svg width="18" height="18" viewBox="0 0 18 18" fill="none" xmlns="http://www.w3.org/2000/svg">
<g clip-path="url(#clip0_1563_17066)">
<path d="M9 15.75C12.7279 15.75 15.75 12.7279 15.75 9C15.75 5.27208 12.7279 2.25 9 2.25C5.27208 2.25 2.25 5.27208 2.25 9C2.25 12.7279 5.27208 15.75 9 15.75Z" stroke="white" stroke-linecap="round" stroke-linejoin="round"/>
<path d="M9 11.8125C10.5533 11.8125 11.8125 10.5533 11.8125 9C11.8125 7.4467 10.5533 6.1875 9 6.1875C7.4467 6.1875 6.1875 7.4467 6.1875 9C6.1875 10.5533 7.4467 11.8125 9 11.8125Z" stroke="white" stroke-linecap="round" stroke-linejoin="round"/>
<path d="M9 6.1875H15.1376" stroke="white" stroke-linecap="round" stroke-linejoin="round"/>
<path d="M11.4358 10.4062L8.3667 15.7219" stroke="white" stroke-linecap="round" stroke-linejoin="round"/>
<path d="M6.56426 10.4062L3.49512 5.09058" stroke="white" stroke-linecap="round" stroke-linejoin="round"/>
</g>
<defs>
<clipPath id="clip0_1563_17066">
<rect width="18" height="18" fill="white"/>
</clipPath>
</defs>
</svg>
