<svg width="24" height="24" viewBox="0 0 24 24" fill="none" xmlns="http://www.w3.org/2000/svg">
<g clip-path="url(#clip0_1433_22502)">
<path d="M5.99962 20.2499C5.80071 20.2499 5.60994 20.1709 5.46929 20.0302C5.32864 19.8896 5.24962 19.6988 5.24962 19.4999V15.4977C4.84952 15.687 4.40806 15.7721 3.96627 15.745C3.52447 15.7179 3.09671 15.5795 2.72274 15.3427C2.34878 15.1059 2.04075 14.7785 1.82731 14.3907C1.61388 14.0029 1.50195 13.5675 1.50195 13.1249C1.50195 12.6823 1.61388 12.2468 1.82731 11.8591C2.04075 11.4713 2.34878 11.1438 2.72274 10.907C3.09671 10.6703 3.52447 10.5319 3.96627 10.5048C4.40806 10.4777 4.84952 10.5628 5.24962 10.7521V6.74988C5.24962 6.55097 5.32864 6.3602 5.46929 6.21955C5.60994 6.0789 5.80071 5.99988 5.99962 5.99988H10.3768C10.1873 5.59978 10.1021 5.15824 10.129 4.71635C10.156 4.27446 10.2943 3.84657 10.531 3.47247C10.7678 3.09838 11.0953 2.79024 11.4831 2.57671C11.8709 2.36319 12.3064 2.25122 12.7492 2.25122C13.1919 2.25122 13.6274 2.36319 14.0152 2.57671C14.403 2.79024 14.7305 3.09838 14.9673 3.47247C15.204 3.84657 15.3423 4.27446 15.3693 4.71635C15.3962 5.15824 15.311 5.59978 15.1215 5.99988H19.4996C19.6985 5.99988 19.8893 6.0789 20.03 6.21955C20.1706 6.3602 20.2496 6.55097 20.2496 6.74988V10.7521C19.8495 10.5628 19.4081 10.4777 18.9663 10.5048C18.5245 10.5319 18.0967 10.6703 17.7227 10.907C17.3488 11.1438 17.0408 11.4713 16.8273 11.8591C16.6139 12.2468 16.502 12.6823 16.502 13.1249C16.502 13.5675 16.6139 14.0029 16.8273 14.3907C17.0408 14.7785 17.3488 15.1059 17.7227 15.3427C18.0967 15.5795 18.5245 15.7179 18.9663 15.745C19.4081 15.7721 19.8495 15.687 20.2496 15.4977V19.4999C20.2496 19.6988 20.1706 19.8896 20.03 20.0302C19.8893 20.1709 19.6985 20.2499 19.4996 20.2499H5.99962Z" stroke="white" stroke-linecap="round" stroke-linejoin="round"/>
</g>
<defs>
<clipPath id="clip0_1433_22502">
<rect width="24" height="24" fill="white"/>
</clipPath>
</defs>
</svg>
