<svg width="16" height="16" viewBox="0 0 16 16" fill="none" xmlns="http://www.w3.org/2000/svg">
<g clip-path="url(#clip0_1577_15940)">
<path d="M9.49966 14C9.49966 14.1326 9.44698 14.2598 9.35321 14.3535C9.25944 14.4473 9.13227 14.5 8.99966 14.5H6.99966C6.86705 14.5 6.73987 14.4473 6.6461 14.3535C6.55234 14.2598 6.49966 14.1326 6.49966 14C6.49966 13.8674 6.55234 13.7402 6.6461 13.6464C6.73987 13.5527 6.86705 13.5 6.99966 13.5H8.99966C9.13227 13.5 9.25944 13.5527 9.35321 13.6464C9.44698 13.7402 9.49966 13.8674 9.49966 14ZM13.9759 9.73936L13.2034 13.2162C13.1668 13.3813 13.0888 13.5345 12.9769 13.6613C12.865 13.7881 12.7228 13.8844 12.5635 13.9413C12.4042 13.9982 12.2331 14.0137 12.0662 13.9865C11.8993 13.9593 11.742 13.8902 11.609 13.7856L9.90653 12.5H6.09403L4.39028 13.7856C4.25734 13.8902 4.10005 13.9593 3.93313 13.9865C3.76621 14.0137 3.59511 13.9982 3.43583 13.9413C3.27656 13.8844 3.13431 13.7881 3.0224 13.6613C2.91048 13.5345 2.83256 13.3813 2.79591 13.2162L2.02341 9.73936C1.99064 9.59015 1.9923 9.43544 2.02825 9.28697C2.0642 9.1385 2.13351 9.00017 2.23091 8.88249L4.01591 6.74124C4.07582 5.95432 4.25647 5.18132 4.55153 4.44936C5.35778 2.42811 6.80153 1.15999 7.38716 0.708736C7.56245 0.572913 7.77791 0.499207 7.99966 0.499207C8.22141 0.499207 8.43687 0.572913 8.61216 0.708736C9.19591 1.15999 10.6415 2.42811 11.4478 4.44936C11.7428 5.18132 11.9235 5.95432 11.9834 6.74124L13.7684 8.88249C13.8658 9.00017 13.9351 9.1385 13.9711 9.28697C14.007 9.43544 14.0087 9.59015 13.9759 9.73936ZM5.27403 11.8644C4.60278 10.6423 4.19528 9.44082 4.05153 8.25999L2.99966 9.52249L3.77216 13L3.78341 12.9919L5.27403 11.8644ZM8.74966 6.24999C8.74966 6.10165 8.70567 5.95665 8.62326 5.83331C8.54085 5.70997 8.42371 5.61384 8.28667 5.55708C8.14963 5.50031 7.99883 5.48546 7.85334 5.5144C7.70785 5.54334 7.57422 5.61477 7.46933 5.71966C7.36444 5.82455 7.29301 5.95818 7.26407 6.10367C7.23513 6.24915 7.24998 6.39995 7.30675 6.537C7.36351 6.67404 7.45964 6.79118 7.58298 6.87359C7.70632 6.956 7.85132 6.99999 7.99966 6.99999C8.19857 6.99999 8.38934 6.92097 8.52999 6.78032C8.67064 6.63966 8.74966 6.4489 8.74966 6.24999ZM12.9997 9.52249L11.9478 8.25999C11.8053 9.43832 11.3978 10.6402 10.7253 11.8656L12.2159 12.9906L12.2272 12.9987L12.9997 9.52249Z" fill="#A375FF"/>
</g>
<defs>
<clipPath id="clip0_1577_15940">
<rect width="16" height="16" fill="white"/>
</clipPath>
</defs>
</svg>
