<svg width="16" height="17" viewBox="0 0 16 17" fill="none" xmlns="http://www.w3.org/2000/svg">
<g clip-path="url(#clip0_1620_16850)">
<path d="M13.5 3H2.5C2.23478 3 1.98043 3.10536 1.79289 3.29289C1.60536 3.48043 1.5 3.73478 1.5 4V13C1.5 13.2652 1.60536 13.5196 1.79289 13.7071C1.98043 13.8946 2.23478 14 2.5 14H13.5C13.7652 14 14.0196 13.8946 14.2071 13.7071C14.3946 13.5196 14.5 13.2652 14.5 13V4C14.5 3.73478 14.3946 3.48043 14.2071 3.29289C14.0196 3.10536 13.7652 3 13.5 3ZM12.5 12.5H3.5C3.36739 12.5 3.24021 12.4473 3.14645 12.3536C3.05268 12.2598 3 12.1326 3 12V5C3 4.86739 3.05268 4.74021 3.14645 4.64645C3.24021 4.55268 3.36739 4.5 3.5 4.5C3.63261 4.5 3.75979 4.55268 3.85355 4.64645C3.94732 4.74021 4 4.86739 4 5V9.79313L6.14625 7.64625C6.19269 7.59976 6.24783 7.56288 6.30853 7.53772C6.36923 7.51256 6.43429 7.49961 6.5 7.49961C6.56571 7.49961 6.63077 7.51256 6.69147 7.53772C6.75217 7.56288 6.80731 7.59976 6.85375 7.64625L8 8.79313L10.7931 6H9C8.86739 6 8.74021 5.94732 8.64645 5.85355C8.55268 5.75979 8.5 5.63261 8.5 5.5C8.5 5.36739 8.55268 5.24021 8.64645 5.14645C8.74021 5.05268 8.86739 5 9 5H12C12.1326 5 12.2598 5.05268 12.3536 5.14645C12.4473 5.24021 12.5 5.36739 12.5 5.5V8.5C12.5 8.63261 12.4473 8.75979 12.3536 8.85355C12.2598 8.94732 12.1326 9 12 9C11.8674 9 11.7402 8.94732 11.6464 8.85355C11.5527 8.75979 11.5 8.63261 11.5 8.5V6.70687L8.35375 9.85375C8.30731 9.90024 8.25217 9.93712 8.19147 9.96228C8.13077 9.98744 8.06571 10.0004 8 10.0004C7.93429 10.0004 7.86923 9.98744 7.80853 9.96228C7.74783 9.93712 7.69269 9.90024 7.64625 9.85375L6.5 8.70687L4 11.2069V11.5H12.5C12.6326 11.5 12.7598 11.5527 12.8536 11.6464C12.9473 11.7402 13 11.8674 13 12C13 12.1326 12.9473 12.2598 12.8536 12.3536C12.7598 12.4473 12.6326 12.5 12.5 12.5Z" fill="#A375FF"/>
</g>
<defs>
<clipPath id="clip0_1620_16850">
<rect width="16" height="16" fill="white" transform="translate(0 0.5)"/>
</clipPath>
</defs>
</svg>
