<svg width="24" height="24" viewBox="0 0 24 24" fill="none" xmlns="http://www.w3.org/2000/svg">
<g clip-path="url(#clip0_1563_16848)">
<path d="M13.5 21H10.5" stroke="white" stroke-linecap="round" stroke-linejoin="round"/>
<path d="M12 10.125C12.4142 10.125 12.75 9.78921 12.75 9.375C12.75 8.96079 12.4142 8.625 12 8.625C11.5858 8.625 11.25 8.96079 11.25 9.375C11.25 9.78921 11.5858 10.125 12 10.125Z" fill="white"/>
<path d="M8.88822 17.9999C3.51728 8.93614 9.73759 3.04957 11.5395 1.65739C11.6711 1.55506 11.8331 1.49951 11.9998 1.49951C12.1665 1.49951 12.3285 1.55506 12.4601 1.65739C14.262 3.04957 20.4823 8.93614 15.1113 17.9999H8.88822Z" stroke="white" stroke-linecap="round" stroke-linejoin="round"/>
<path d="M17.2348 10.395L20.0763 13.8038C20.1497 13.8919 20.2019 13.9957 20.2289 14.1072C20.2559 14.2187 20.2569 14.3349 20.232 14.4469L19.0732 19.6622C19.0456 19.7866 18.9867 19.9018 18.9022 19.9972C18.8177 20.0925 18.7103 20.1647 18.5901 20.207C18.4699 20.2493 18.341 20.2603 18.2154 20.239C18.0898 20.2176 17.9717 20.1646 17.8723 20.085L15.1113 18" stroke="white" stroke-linecap="round" stroke-linejoin="round"/>
<path d="M6.76517 10.395L3.92361 13.8038C3.85021 13.8919 3.79802 13.9957 3.77104 14.1072C3.74406 14.2187 3.74301 14.3349 3.76798 14.4469L4.92673 19.6622C4.95436 19.7866 5.01321 19.9018 5.09773 19.9972C5.18225 20.0925 5.28966 20.1647 5.40982 20.207C5.52999 20.2493 5.65895 20.2603 5.78455 20.239C5.91014 20.2176 6.02823 20.1646 6.12767 20.085L8.88861 18" stroke="white" stroke-linecap="round" stroke-linejoin="round"/>
</g>
<defs>
<clipPath id="clip0_1563_16848">
<rect width="24" height="24" fill="white"/>
</clipPath>
</defs>
</svg>
