<svg width="16" height="17" viewBox="0 0 16 17" fill="none" xmlns="http://www.w3.org/2000/svg">
<g clip-path="url(#clip0_1630_26910)">
<path d="M13 5.5H11V4C11 3.20435 10.6839 2.44129 10.1213 1.87868C9.55871 1.31607 8.79565 1 8 1C7.20435 1 6.44129 1.31607 5.87868 1.87868C5.31607 2.44129 5 3.20435 5 4V5.5H3C2.73478 5.5 2.48043 5.60536 2.29289 5.79289C2.10536 5.98043 2 6.23478 2 6.5V13.5C2 13.7652 2.10536 14.0196 2.29289 14.2071C2.48043 14.3946 2.73478 14.5 3 14.5H13C13.2652 14.5 13.5196 14.3946 13.7071 14.2071C13.8946 14.0196 14 13.7652 14 13.5V6.5C14 6.23478 13.8946 5.98043 13.7071 5.79289C13.5196 5.60536 13.2652 5.5 13 5.5ZM8.5 10.4144V12C8.5 12.1326 8.44732 12.2598 8.35355 12.3536C8.25979 12.4473 8.13261 12.5 8 12.5C7.86739 12.5 7.74021 12.4473 7.64645 12.3536C7.55268 12.2598 7.5 12.1326 7.5 12V10.4144C7.16639 10.2964 6.88522 10.0643 6.70618 9.75914C6.52715 9.45393 6.46177 9.09526 6.5216 8.74651C6.58144 8.39776 6.76264 8.08139 7.03317 7.85332C7.3037 7.62525 7.64616 7.50016 8 7.50016C8.35384 7.50016 8.6963 7.62525 8.96683 7.85332C9.23736 8.08139 9.41856 8.39776 9.4784 8.74651C9.53823 9.09526 9.47285 9.45393 9.29382 9.75914C9.11478 10.0643 8.83361 10.2964 8.5 10.4144ZM10 5.5H6V4C6 3.46957 6.21071 2.96086 6.58579 2.58579C6.96086 2.21071 7.46957 2 8 2C8.53043 2 9.03914 2.21071 9.41421 2.58579C9.78929 2.96086 10 3.46957 10 4V5.5Z" fill="#A375FF"/>
</g>
<defs>
<clipPath id="clip0_1630_26910">
<rect width="16" height="16" fill="white" transform="translate(0 0.5)"/>
</clipPath>
</defs>
</svg>
