<svg width="16" height="16" viewBox="0 0 16 16" fill="none" xmlns="http://www.w3.org/2000/svg">
<path fill-rule="evenodd" clip-rule="evenodd" d="M10.7955 0.85592C9.4379 0.792593 6.07533 0.795667 4.71653 0.85592C3.52251 0.91187 2.46929 1.20023 1.62019 2.04931C0.350356 3.31912 0.362069 4.98378 0.378573 7.32921C0.380512 7.60482 0.382518 7.88983 0.382518 8.1847C0.382518 8.46068 0.38104 8.72739 0.37961 8.98531C0.366175 11.4096 0.357045 13.057 1.62019 14.3201C2.89236 15.5917 4.5754 15.5792 6.89438 15.5619C7.17222 15.5599 7.4592 15.5577 7.75569 15.5577H7.79573C10.608 15.5577 11.5847 15.5578 12.5853 15.1704C13.9521 14.6398 14.9838 13.4181 15.0846 11.2238C15.1485 9.86564 15.1449 6.50375 15.0846 5.14498C14.9629 2.5547 13.5727 0.983805 10.7955 0.85592ZM12.9443 13.3812C12.0876 14.2379 10.9253 14.2353 8.4148 14.2295H8.41477C8.19928 14.229 7.97387 14.2285 7.73786 14.2285L7.31558 14.2287C4.54827 14.2307 3.38853 14.2315 2.53139 13.372C1.63966 12.4845 1.65441 11.1343 1.67581 9.17456C1.67927 8.85749 1.68291 8.52446 1.68291 8.17486C1.68291 7.87839 1.68025 7.58916 1.67767 7.30805C1.65068 4.3682 1.63184 2.31627 4.74359 2.1569L4.77887 2.15565C5.53429 2.12896 5.78738 2.12001 7.72925 2.12001L7.75692 2.13846C8.03767 2.13846 8.31324 2.13594 8.58255 2.13348C11.4562 2.10721 13.6173 2.08745 13.7584 5.204C13.7934 5.98176 13.8014 6.2154 13.8014 8.18408C13.8014 8.36111 13.8016 8.53204 13.8017 8.69715C13.8042 11.366 13.8053 12.5162 12.9443 13.3812ZM7.55627 4.40051C5.35236 4.40051 3.56812 6.09739 3.56812 8.18926C3.56812 10.283 5.3543 11.978 7.55627 11.978C9.76019 11.978 11.5444 10.2811 11.5444 8.18926C11.5444 6.09554 9.75824 4.40051 7.55627 4.40051ZM7.55627 10.6484C6.12564 10.6484 4.96766 9.54775 4.96766 8.18926C4.96766 6.83078 6.12629 5.73008 7.55627 5.73008C8.98626 5.73008 10.1449 6.83078 10.1449 8.18926C10.1455 9.54775 8.98691 10.6484 7.55627 10.6484ZM12.3411 4.20126C12.3411 4.75191 11.984 5.1983 11.5435 5.1983C11.103 5.1983 10.7458 4.75191 10.7458 4.20126C10.7458 3.65061 11.103 3.20422 11.5435 3.20422C11.984 3.20422 12.3411 3.65061 12.3411 4.20126Z" fill="white"/>
</svg>
