<svg width="16" height="16" viewBox="0 0 16 16" fill="none" xmlns="http://www.w3.org/2000/svg">
<path fill-rule="evenodd" clip-rule="evenodd" d="M0.631226 2.58003C0.631226 1.60259 1.42425 0.80957 2.40169 0.80957C3.37913 0.80957 4.17215 1.60259 4.17215 2.58003C4.17215 3.55748 3.37913 4.36894 2.40169 4.36894C1.42425 4.36894 0.631226 3.55748 0.631226 2.58003ZM15.3851 15.547V10.1619C15.3851 7.50619 14.8134 5.47754 11.7151 5.47754C10.2213 5.47754 9.22541 6.289 8.81968 7.06358H8.78279V5.71729H5.85046V15.5655H8.91189V10.6783C8.91189 9.38731 9.15164 8.15167 10.7377 8.15167C12.3053 8.15167 12.3237 9.60862 12.3237 10.752V15.547H15.3851ZM0.870483 5.71594H3.93191V15.5641H0.870483V5.71594Z" fill="white"/>
</svg>
