<svg width="100" height="20" viewBox="0 0 100 20" fill="none" xmlns="http://www.w3.org/2000/svg">
<g clip-path="url(#clip0_810_4022)">
<path d="M9.86724 7.21698H4.06547L0 13.3559L4.06547 19.5008H9.86724L5.90461 13.3559L9.86724 7.21698Z" fill="#A375FF"/>
<path d="M16.7031 0.5L8.19104 13.3551H14.0957L19.117 5.65886L16.7031 0.5Z" fill="#A375FF"/>
</g>
<path d="M27.808 18.4118V3.51409H33.3642C35.7226 3.51409 37.5214 4.16959 38.7605 5.48059C40.013 6.79159 40.6392 8.61905 40.6392 10.963C40.6392 13.3069 40.013 15.1343 38.7605 16.4453C37.5214 17.7563 35.7226 18.4118 33.3642 18.4118H27.808ZM30.5461 15.9487H33.3642C34.7899 15.9487 35.8825 15.5316 36.642 14.6973C37.4014 13.8498 37.7812 12.605 37.7812 10.963C37.7812 9.3209 37.4014 8.07611 36.642 7.22859C35.8825 6.38108 34.7899 5.95732 33.3642 5.95732H30.5461V15.9487Z" fill="white"/>
<path d="M42.6931 9.27455H45.1914V18.4118H42.6931V9.27455ZM45.1914 5.71896V8.20191H42.6931V5.71896H45.1914Z" fill="white"/>
<path d="M48.8315 9.27455L50.6702 13.4856C50.8967 13.9889 51.0433 14.4259 51.1099 14.7966C51.1765 15.1674 51.2098 15.5316 51.2098 15.8891V16.207H51.8494V15.8891C51.8494 15.5316 51.8827 15.1674 51.9493 14.7966C52.0159 14.4126 52.1558 13.9756 52.369 13.4856L54.2078 9.27455H56.786L52.8087 18.4118H50.2305L46.2532 9.27455H48.8315Z" fill="white"/>
<path d="M60.632 3.11682V8.44028C60.632 9.02294 60.592 9.49305 60.5121 9.85059C60.4321 10.1949 60.3255 10.5193 60.1923 10.8239L60.8119 10.9828C61.105 10.3472 61.558 9.87046 62.1709 9.55264C62.7839 9.23482 63.4967 9.07591 64.3095 9.07591C64.8558 9.07591 65.3754 9.16861 65.8684 9.354C66.3614 9.5394 66.7945 9.83073 67.1675 10.228C67.5406 10.6253 67.8404 11.1417 68.0669 11.7774C68.2934 12.3998 68.4067 13.1546 68.4067 14.0418V18.4118H65.8284V14.0418C65.8284 13.4989 65.7618 13.0486 65.6286 12.6911C65.4953 12.3203 65.3155 12.0224 65.089 11.7972C64.8624 11.5721 64.5893 11.4132 64.2695 11.3205C63.9497 11.2278 63.6033 11.1815 63.2302 11.1815C62.5374 11.1815 61.9711 11.3006 61.5314 11.539C61.0917 11.7774 60.7919 12.0025 60.632 12.2144V18.4118H58.0538V3.11682H60.632Z" fill="white"/>
<path d="M72.4324 9.27455V13.6445C72.4324 14.1875 72.4923 14.6444 72.6123 15.0151C72.7455 15.3727 72.9187 15.664 73.1319 15.8891C73.3584 16.1143 73.6182 16.2732 73.9114 16.3659C74.2045 16.4586 74.511 16.5049 74.8307 16.5049C75.4303 16.5049 75.9367 16.3857 76.3497 16.1474C76.7761 15.909 77.0692 15.6839 77.2291 15.472V9.27455H79.8074V18.4118H77.2291C77.2291 18.1735 77.2691 17.9351 77.349 17.6967C77.429 17.4451 77.5356 17.167 77.6688 16.8625L77.0492 16.7035C76.7561 17.3392 76.3097 17.8159 75.7101 18.1337C75.1239 18.4515 74.471 18.6105 73.7515 18.6105C73.2585 18.6105 72.7788 18.5178 72.3125 18.3324C71.8461 18.147 71.4264 17.8623 71.0533 17.4782C70.6936 17.081 70.4004 16.5777 70.1739 15.9686C69.9607 15.3462 69.8541 14.598 69.8541 13.724V9.27455H72.4324Z" fill="white"/>
<path d="M81.768 9.27455H84.3463C84.3463 9.51291 84.3063 9.7579 84.2264 10.0095C84.1464 10.2479 84.0398 10.5193 83.9066 10.8239L84.5262 10.9828C84.8193 10.3472 85.2523 9.87046 85.8253 9.55264C86.4115 9.23482 87.0178 9.07591 87.644 9.07591C88.1237 9.07591 88.5967 9.16861 89.0631 9.354C89.5294 9.5394 89.9425 9.83073 90.3022 10.228C90.6753 10.6253 90.9684 11.1417 91.1816 11.7774C91.4081 12.3998 91.5214 13.1546 91.5214 14.0418V18.4118H88.9431V14.0418C88.9431 13.4989 88.8765 13.0486 88.7433 12.6911C88.6234 12.3203 88.4501 12.0224 88.2236 11.7972C88.0104 11.5721 87.7573 11.4132 87.4642 11.3205C87.1843 11.2278 86.8846 11.1815 86.5648 11.1815C86.0584 11.1815 85.5988 11.3006 85.1857 11.539C84.786 11.7774 84.5062 12.0025 84.3463 12.2144V18.4118H81.768V9.27455Z" fill="white"/>
<path d="M93.1447 11.4V9.27455H95.0034V5.10319H97.5616V6.85119C97.5616 7.40737 97.495 7.83775 97.3618 8.14232C97.2419 8.4469 97.0087 8.69188 96.6623 8.87728L96.8421 9.49305C97.082 9.40035 97.3285 9.34076 97.5816 9.31428C97.8481 9.28779 98.1346 9.27455 98.441 9.27455H100V11.4H97.5616V15.2932C97.5616 15.717 97.6083 15.9885 97.7015 16.1076C97.8081 16.2268 98.0347 16.2864 98.3811 16.2864H99.2005V18.4118H98.3811C97.8081 18.4118 97.3085 18.3787 96.8821 18.3125C96.4691 18.233 96.1226 18.094 95.8428 17.8954C95.563 17.6835 95.3498 17.3988 95.2032 17.0412C95.07 16.6837 95.0034 16.2268 95.0034 15.6706V11.4H93.1447Z" fill="white"/>
<defs>
<clipPath id="clip0_810_4022">
<rect width="19.1174" height="19" fill="white" transform="translate(0 0.5)"/>
</clipPath>
</defs>
</svg>
