<svg width="25" height="24" viewBox="0 0 25 24" fill="none" xmlns="http://www.w3.org/2000/svg">
<g clip-path="url(#clip0_795_30942)">
<path d="M8.16675 21C9.40939 21 10.4167 19.9926 10.4167 18.75C10.4167 17.5074 9.40939 16.5 8.16675 16.5C6.92411 16.5 5.91675 17.5074 5.91675 18.75C5.91675 19.9926 6.92411 21 8.16675 21Z" stroke="white" stroke-linecap="round" stroke-linejoin="round"/>
<path d="M8.16675 7.5C9.40939 7.5 10.4167 6.49264 10.4167 5.25C10.4167 4.00736 9.40939 3 8.16675 3C6.92411 3 5.91675 4.00736 5.91675 5.25C5.91675 6.49264 6.92411 7.5 8.16675 7.5Z" stroke="white" stroke-linecap="round" stroke-linejoin="round"/>
<path d="M20.1667 15.75C21.4094 15.75 22.4167 14.7426 22.4167 13.5C22.4167 12.2574 21.4094 11.25 20.1667 11.25C18.9241 11.25 17.9167 12.2574 17.9167 13.5C17.9167 14.7426 18.9241 15.75 20.1667 15.75Z" stroke="white" stroke-linecap="round" stroke-linejoin="round"/>
<path d="M17.9167 13.5L13.2292 12.8297C12.8691 12.7782 12.5399 12.5977 12.303 12.3216L8.16675 7.5V16.5" stroke="white" stroke-linecap="round" stroke-linejoin="round"/>
</g>
<defs>
<clipPath id="clip0_795_30942">
<rect width="24" height="24" fill="white" transform="translate(0.333374)"/>
</clipPath>
</defs>
</svg>
