<svg width="32" height="32" viewBox="0 0 32 32" fill="none" xmlns="http://www.w3.org/2000/svg">
<g clip-path="url(#clip0_696_34612)">
<path d="M8.00007 27.0002C7.73485 27.0002 7.4805 26.8948 7.29296 26.7073C7.10542 26.5197 7.00007 26.2654 7.00007 26.0002V20.6639C6.4666 20.9163 5.87798 21.0297 5.28892 20.9936C4.69987 20.9575 4.12951 20.773 3.63089 20.4573C3.13227 20.1416 2.72157 19.7049 2.43699 19.1879C2.1524 18.6709 2.00317 18.0903 2.00317 17.5002C2.00317 16.91 2.1524 16.3294 2.43699 15.8124C2.72157 15.2954 3.13227 14.8587 3.63089 14.543C4.12951 14.2273 4.69987 14.0429 5.28892 14.0067C5.87798 13.9706 6.4666 14.084 7.00007 14.3364V9.00017C7.00007 8.73495 7.10542 8.4806 7.29296 8.29306C7.4805 8.10552 7.73485 8.00017 8.00007 8.00017H13.8363C13.5836 7.4667 13.47 6.87798 13.5059 6.2888C13.5419 5.69961 13.7263 5.12908 14.0419 4.63029C14.3576 4.1315 14.7943 3.72064 15.3114 3.43594C15.8285 3.15125 16.4092 3.00195 16.9994 3.00195C17.5897 3.00195 18.1704 3.15125 18.6875 3.43594C19.2046 3.72064 19.6413 4.1315 19.957 4.63029C20.2726 5.12908 20.457 5.69961 20.4929 6.2888C20.5289 6.87798 20.4152 7.4667 20.1626 8.00017H26.0001C26.2653 8.00017 26.5196 8.10552 26.7072 8.29306C26.8947 8.4806 27.0001 8.73495 27.0001 9.00017V14.3364C26.4666 14.084 25.878 13.9706 25.2889 14.0067C24.6999 14.0429 24.1295 14.2273 23.6309 14.543C23.1323 14.8587 22.7216 15.2954 22.437 15.8124C22.1524 16.3294 22.0032 16.91 22.0032 17.5002C22.0032 18.0903 22.1524 18.6709 22.437 19.1879C22.7216 19.7049 23.1323 20.1416 23.6309 20.4573C24.1295 20.773 24.6999 20.9575 25.2889 20.9936C25.878 21.0297 26.4666 20.9163 27.0001 20.6639V26.0002C27.0001 26.2654 26.8947 26.5197 26.7072 26.7073C26.5196 26.8948 26.2653 27.0002 26.0001 27.0002H8.00007Z" stroke="#9E9E9E" stroke-linecap="round" stroke-linejoin="round"/>
</g>
<defs>
<clipPath id="clip0_696_34612">
<rect width="32" height="32" fill="white"/>
</clipPath>
</defs>
</svg>
