<svg width="16" height="17" viewBox="0 0 16 17" fill="none" xmlns="http://www.w3.org/2000/svg">
<g clip-path="url(#clip0_1534_16409)">
<path d="M14.4781 12.6598L12.4038 2.79732C12.3769 2.66835 12.3249 2.54594 12.2506 2.43715C12.1763 2.32835 12.0813 2.2353 11.9709 2.16334C11.8606 2.09138 11.7371 2.04194 11.6076 2.01784C11.4781 1.99375 11.3451 1.99548 11.2163 2.02295L8.29062 2.6517C8.03184 2.70836 7.8059 2.8649 7.66194 3.08729C7.51798 3.30967 7.46764 3.57989 7.52187 3.8392L9.59625 13.7017C9.64248 13.9267 9.76477 14.1289 9.94255 14.2744C10.1203 14.4199 10.3428 14.4997 10.5725 14.5004C10.6435 14.5004 10.7143 14.4928 10.7837 14.4779L13.7094 13.8492C13.9685 13.7924 14.1946 13.6355 14.3386 13.4128C14.4826 13.19 14.5327 12.9194 14.4781 12.6598ZM8.5 3.63482C8.5 3.63107 8.5 3.6292 8.5 3.6292L11.425 3.0042L11.6331 3.99607L8.70813 4.62545L8.5 3.63482ZM9.125 6.59607L8.91562 5.60232L11.8419 4.97357L12.0506 5.96732L9.125 6.59607ZM13.5 12.8717L10.575 13.4967L10.3669 12.5048L13.2919 11.8754L13.5 12.8661C13.5 12.8698 13.5 12.8717 13.5 12.8717ZM6.5 2.50045H3.5C3.23478 2.50045 2.98043 2.6058 2.79289 2.79334C2.60536 2.98087 2.5 3.23523 2.5 3.50045V13.5004C2.5 13.7657 2.60536 14.02 2.79289 14.2076C2.98043 14.3951 3.23478 14.5004 3.5 14.5004H6.5C6.76522 14.5004 7.01957 14.3951 7.20711 14.2076C7.39464 14.02 7.5 13.7657 7.5 13.5004V3.50045C7.5 3.23523 7.39464 2.98087 7.20711 2.79334C7.01957 2.6058 6.76522 2.50045 6.5 2.50045ZM3.5 3.50045H6.5V4.50045H3.5V3.50045ZM6.5 13.5004H3.5V12.5004H6.5V13.5004Z" fill="#A375FF"/>
</g>
<defs>
<clipPath id="clip0_1534_16409">
<rect width="16" height="16" fill="white" transform="translate(0 0.5)"/>
</clipPath>
</defs>
</svg>
