<svg width="25" height="24" viewBox="0 0 25 24" fill="none" xmlns="http://www.w3.org/2000/svg">
<g clip-path="url(#clip0_1626_19658)">
<path d="M12.666 9.75V12H5.91602C5.31928 12 4.74698 11.7629 4.32503 11.341C3.90307 10.919 3.66602 10.3467 3.66602 9.75C3.66602 9.15326 3.90307 8.58097 4.32503 8.15901C4.74698 7.73705 5.31928 7.5 5.91602 7.5H10.416C11.0128 7.5 11.585 7.73705 12.007 8.15901C12.429 8.58097 12.666 9.15326 12.666 9.75Z" stroke="white" stroke-linecap="round" stroke-linejoin="round"/>
<path d="M12.666 7.5H10.416C9.81928 7.5 9.24698 7.26295 8.82503 6.84099C8.40307 6.41903 8.16602 5.84674 8.16602 5.25C8.16602 4.65326 8.40307 4.08097 8.82503 3.65901C9.24698 3.23705 9.81928 3 10.416 3C11.0128 3 11.585 3.23705 12.007 3.65901C12.429 4.08097 12.666 4.65326 12.666 5.25V7.5Z" stroke="white" stroke-linecap="round" stroke-linejoin="round"/>
<path d="M14.916 12H12.666V5.25C12.666 4.65326 12.9031 4.08097 13.325 3.65901C13.747 3.23705 14.3193 3 14.916 3C15.5128 3 16.085 3.23705 16.507 3.65901C16.929 4.08097 17.166 4.65326 17.166 5.25V9.75C17.166 10.3467 16.929 10.919 16.507 11.341C16.085 11.7629 15.5128 12 14.916 12Z" stroke="white" stroke-linecap="round" stroke-linejoin="round"/>
<path d="M17.166 12V9.75C17.166 9.15326 17.4031 8.58097 17.825 8.15901C18.247 7.73705 18.8193 7.5 19.416 7.5C20.0128 7.5 20.585 7.73705 21.007 8.15901C21.429 8.58097 21.666 9.15326 21.666 9.75C21.666 10.3467 21.429 10.919 21.007 11.341C20.585 11.7629 20.0128 12 19.416 12H17.166Z" stroke="white" stroke-linecap="round" stroke-linejoin="round"/>
<path d="M12.666 14.25V12H19.416C20.0128 12 20.585 12.2371 21.007 12.659C21.429 13.081 21.666 13.6533 21.666 14.25C21.666 14.8467 21.429 15.419 21.007 15.841C20.585 16.2629 20.0128 16.5 19.416 16.5H14.916C14.3193 16.5 13.747 16.2629 13.325 15.841C12.9031 15.419 12.666 14.8467 12.666 14.25Z" stroke="white" stroke-linecap="round" stroke-linejoin="round"/>
<path d="M12.666 16.5H14.916C15.5128 16.5 16.085 16.7371 16.507 17.159C16.929 17.581 17.166 18.1533 17.166 18.75C17.166 19.3467 16.929 19.919 16.507 20.341C16.085 20.7629 15.5128 21 14.916 21C14.3193 21 13.747 20.7629 13.325 20.341C12.9031 19.919 12.666 19.3467 12.666 18.75V16.5Z" stroke="white" stroke-linecap="round" stroke-linejoin="round"/>
<path d="M10.416 12H12.666V18.75C12.666 19.3467 12.429 19.919 12.007 20.341C11.585 20.7629 11.0128 21 10.416 21C9.81928 21 9.24698 20.7629 8.82503 20.341C8.40307 19.919 8.16602 19.3467 8.16602 18.75V14.25C8.16602 13.6533 8.40307 13.081 8.82503 12.659C9.24698 12.2371 9.81928 12 10.416 12Z" stroke="white" stroke-linecap="round" stroke-linejoin="round"/>
<path d="M8.16602 12V14.25C8.16602 14.8467 7.92896 15.419 7.50701 15.841C7.08505 16.2629 6.51275 16.5 5.91602 16.5C5.31928 16.5 4.74698 16.2629 4.32503 15.841C3.90307 15.419 3.66602 14.8467 3.66602 14.25C3.66602 13.6533 3.90307 13.081 4.32503 12.659C4.74698 12.2371 5.31928 12 5.91602 12H8.16602Z" stroke="white" stroke-linecap="round" stroke-linejoin="round"/>
</g>
<defs>
<clipPath id="clip0_1626_19658">
<rect width="24" height="24" fill="white" transform="translate(0.666016)"/>
</clipPath>
</defs>
</svg>
