<svg width="16" height="17" viewBox="0 0 16 17" fill="none" xmlns="http://www.w3.org/2000/svg">
<g clip-path="url(#clip0_1534_16422)">
<path d="M13 3H3C2.73478 3 2.48043 3.10536 2.29289 3.29289C2.10536 3.48043 2 3.73478 2 4V7.5C2 10.795 3.595 12.7919 4.93313 13.8869C6.37437 15.0656 7.80813 15.4656 7.87063 15.4825C7.95656 15.5059 8.04719 15.5059 8.13313 15.4825C8.19563 15.4656 9.6275 15.0656 11.0706 13.8869C12.405 12.7919 14 10.795 14 7.5V4C14 3.73478 13.8946 3.48043 13.7071 3.29289C13.5196 3.10536 13.2652 3 13 3ZM10.855 7.35375L7.355 10.8538C7.30856 10.9002 7.25342 10.9371 7.19272 10.9623C7.13202 10.9874 7.06696 11.0004 7.00125 11.0004C6.93554 11.0004 6.87048 10.9874 6.80978 10.9623C6.74908 10.9371 6.69394 10.9002 6.6475 10.8538L5.1475 9.35375C5.05368 9.25993 5.00097 9.13268 5.00097 9C5.00097 8.86732 5.05368 8.74007 5.1475 8.64625C5.24132 8.55243 5.36857 8.49972 5.50125 8.49972C5.63393 8.49972 5.76118 8.55243 5.855 8.64625L7 9.79313L10.1462 6.64625C10.1927 6.59979 10.2479 6.56294 10.3086 6.5378C10.3692 6.51266 10.4343 6.49972 10.5 6.49972C10.5657 6.49972 10.6308 6.51266 10.6914 6.5378C10.7521 6.56294 10.8073 6.59979 10.8538 6.64625C10.9002 6.6927 10.9371 6.74786 10.9622 6.80855C10.9873 6.86925 11.0003 6.9343 11.0003 7C11.0003 7.0657 10.9873 7.13075 10.9622 7.19145C10.9371 7.25214 10.9002 7.3073 10.8538 7.35375H10.855Z" fill="#A375FF"/>
</g>
<defs>
<clipPath id="clip0_1534_16422">
<rect width="16" height="16" fill="white" transform="translate(0 0.5)"/>
</clipPath>
</defs>
</svg>
