<svg width="18" height="12" viewBox="0 0 18 12" fill="none" xmlns="http://www.w3.org/2000/svg">
<path d="M3.98058 9.60718C7.78639 11.0143 11.0251 11.2884 14.6953 9.09815C14.6684 9.13638 13.9424 10.1554 12.0333 10.6776C12.4366 11.1999 12.9878 11.7986 12.9878 11.7986C14.2113 11.7986 15.4079 11.4674 16.4431 10.8305C17.2498 10.321 17.7069 9.44204 17.6128 8.52493C17.4515 6.95815 17.0616 5.42959 16.4566 3.96476C15.6902 2.05408 13.8483 0.729315 11.7106 0.538232C11.5224 0.525488 11.3879 0.525488 11.3073 0.525488L11.0922 0.729277C13.5526 1.39166 14.776 2.42343 14.8029 2.46166C11.0249 0.652851 6.56127 0.627401 2.75637 2.38523C2.75637 2.38523 3.96641 1.25155 6.64189 0.652852L6.48056 0.5C6.19821 0.5 5.92931 0.525488 5.64699 0.563682C3.6706 0.882129 2.01692 2.16866 1.30433 3.93924C0.685862 5.46779 0.282529 7.07277 0.134647 8.70324C0.0539805 9.56941 0.484215 10.4229 1.23712 10.9197C2.23202 11.5438 3.41515 11.875 4.61174 11.875C4.61174 11.875 5.09574 11.2763 5.57978 10.7413C3.76472 10.2318 3.02527 9.21277 3.01182 9.17453L3.3534 9.33979C3.55761 9.43864 3.76696 9.52819 3.98058 9.60718ZM6.09068 8.49945C5.21676 8.47396 4.53107 7.77338 4.55797 6.93266C4.58488 6.14292 5.25711 5.50602 6.09068 5.48053C6.9646 5.50602 7.65028 6.2066 7.62338 7.04732C7.58303 7.8371 6.92425 8.474 6.09068 8.49945ZM11.5761 8.49945C10.7022 8.47396 10.0165 7.77338 10.0434 6.93266C10.0703 6.14292 10.7426 5.50602 11.5761 5.48053C12.45 5.50602 13.1357 6.2066 13.1088 7.04732C13.082 7.8371 12.4097 8.474 11.5761 8.49945Z" fill="white"/>
</svg>
