<svg width="38" height="38" viewBox="0 0 38 38" fill="none" xmlns="http://www.w3.org/2000/svg">
<g clip-path="url(#clip0_2786_17917)">
<rect width="38" height="38" rx="6" fill="url(#paint0_linear_2786_17917)"/>
<g filter="url(#filter0_d_2786_17917)">
<path d="M3.4375 15.8168V13.8182H12.0433V15.8168H8.95597V24H6.52983V15.8168H3.4375ZM13.8567 26.8636C13.565 26.8636 13.29 26.8404 13.0314 26.794C12.7729 26.7509 12.5508 26.6929 12.3652 26.62L12.9022 24.8551C13.1408 24.9347 13.3562 24.9811 13.5485 24.9943C13.744 25.0076 13.9114 24.9761 14.0506 24.8999C14.1931 24.8269 14.3025 24.696 14.3787 24.5071L14.4732 24.2784L11.7587 16.3636H14.3042L15.7111 21.8125H15.7907L17.2175 16.3636H19.7779L16.8993 24.7308C16.7601 25.1484 16.5629 25.5163 16.3077 25.8345C16.0558 26.156 15.7293 26.4079 15.3283 26.5902C14.9306 26.7725 14.44 26.8636 13.8567 26.8636ZM20.71 26.8636V16.3636H23.1163V17.6712H23.1909C23.2903 17.4392 23.4312 17.2154 23.6135 17C23.7991 16.7846 24.0344 16.6089 24.3194 16.473C24.6078 16.3338 24.9525 16.2642 25.3535 16.2642C25.8838 16.2642 26.3793 16.4034 26.84 16.6818C27.304 16.9602 27.6786 17.3894 27.9636 17.9695C28.2486 18.5495 28.3912 19.2886 28.3912 20.1868C28.3912 21.0518 28.2536 21.776 27.9785 22.3594C27.7067 22.9427 27.3388 23.3802 26.8748 23.6719C26.4141 23.9635 25.902 24.1094 25.3386 24.1094C24.9541 24.1094 24.621 24.0464 24.3393 23.9205C24.0576 23.7945 23.8206 23.6288 23.6284 23.4233C23.4395 23.2178 23.2936 22.9974 23.1909 22.7621H23.1412V26.8636H20.71ZM23.0914 20.1818C23.0914 20.5928 23.1461 20.9508 23.2555 21.2557C23.3682 21.5606 23.5289 21.7976 23.7377 21.9666C23.9499 22.1323 24.2034 22.2152 24.4984 22.2152C24.7967 22.2152 25.0502 22.1323 25.2591 21.9666C25.4679 21.7976 25.6253 21.5606 25.7314 21.2557C25.8407 20.9508 25.8954 20.5928 25.8954 20.1818C25.8954 19.7708 25.8407 19.4145 25.7314 19.1129C25.6253 18.8113 25.4679 18.5777 25.2591 18.4119C25.0536 18.2462 24.8 18.1634 24.4984 18.1634C24.2001 18.1634 23.9466 18.2446 23.7377 18.407C23.5289 18.5694 23.3682 18.8014 23.2555 19.103C23.1461 19.4046 23.0914 19.7642 23.0914 20.1818ZM35.6857 24V25.7798H28.8896V24H35.6857Z" fill="white"/>
</g>
</g>
<defs>
<filter id="filter0_d_2786_17917" x="2.4375" y="13.8181" width="34.25" height="15.0454" filterUnits="userSpaceOnUse" color-interpolation-filters="sRGB">
<feFlood flood-opacity="0" result="BackgroundImageFix"/>
<feColorMatrix in="SourceAlpha" type="matrix" values="0 0 0 0 0 0 0 0 0 0 0 0 0 0 0 0 0 0 127 0" result="hardAlpha"/>
<feOffset dy="1"/>
<feGaussianBlur stdDeviation="0.5"/>
<feComposite in2="hardAlpha" operator="out"/>
<feColorMatrix type="matrix" values="0 0 0 0 0 0 0 0 0 0 0 0 0 0 0 0 0 0 0.43 0"/>
<feBlend mode="normal" in2="BackgroundImageFix" result="effect1_dropShadow_2786_17917"/>
<feBlend mode="normal" in="SourceGraphic" in2="effect1_dropShadow_2786_17917" result="shape"/>
</filter>
<linearGradient id="paint0_linear_2786_17917" x1="19.5" y1="38" x2="19.5" y2="-3.42296e-07" gradientUnits="userSpaceOnUse">
<stop stop-color="#EB3349"/>
<stop offset="1" stop-color="#F47843"/>
</linearGradient>
<clipPath id="clip0_2786_17917">
<rect width="38" height="38" rx="6" fill="white"/>
</clipPath>
</defs>
</svg>
