<svg width="25" height="24" viewBox="0 0 25 24" fill="none" xmlns="http://www.w3.org/2000/svg">
<g clip-path="url(#clip0_842_10943)">
<path d="M5.16699 3.75L20.167 20.25" stroke="white" stroke-linecap="round" stroke-linejoin="round"/>
<path d="M15.1902 14.775C14.4542 15.4441 13.4826 15.7934 12.489 15.7461C11.4955 15.6988 10.5614 15.2588 9.89236 14.5228C9.22327 13.7868 8.87394 12.8152 8.92124 11.8217C8.96853 10.8281 9.40857 9.89407 10.1445 9.22498" stroke="white" stroke-linecap="round" stroke-linejoin="round"/>
<path d="M13.373 8.31653C14.1703 8.4692 14.8965 8.87644 15.4425 9.47708C15.9886 10.0777 16.3249 10.8393 16.4012 11.6475" stroke="white" stroke-linecap="round" stroke-linejoin="round"/>
<path d="M20.2245 15.8531C22.2682 14.0231 23.1673 12 23.1673 12C23.1673 12 20.1673 5.25001 12.6673 5.25001C12.0178 5.24912 11.3693 5.3018 10.7285 5.40751" stroke="white" stroke-linecap="round" stroke-linejoin="round"/>
<path d="M7.60449 6.43127C3.7823 8.36627 2.16699 12 2.16699 12C2.16699 12 5.16699 18.75 12.667 18.75C14.4243 18.7638 16.1597 18.3589 17.7295 17.5688" stroke="white" stroke-linecap="round" stroke-linejoin="round"/>
</g>
<defs>
<clipPath id="clip0_842_10943">
<rect width="24" height="24" fill="white" transform="translate(0.666992)"/>
</clipPath>
</defs>
</svg>
