<svg width="25" height="24" viewBox="0 0 25 24" fill="none" xmlns="http://www.w3.org/2000/svg">
<g clip-path="url(#clip0_1433_18929)">
<path d="M4.33488 13.3125C4.09016 12.8821 4.02562 12.3723 4.15535 11.8945C4.28508 11.4167 4.59854 11.0096 5.02733 10.762C5.45612 10.5144 5.96542 10.4465 6.4441 10.5731C6.92278 10.6996 7.33197 11.0104 7.58238 11.4375L9.33363 14.25V4.125C9.33363 3.62772 9.53117 3.15081 9.8828 2.79917C10.2344 2.44754 10.7113 2.25 11.2086 2.25C11.7059 2.25 12.1828 2.44754 12.5345 2.79917C12.8861 3.15081 13.0836 3.62772 13.0836 4.125V9.375C13.0836 8.87772 13.2812 8.40081 13.6328 8.04917C13.9844 7.69754 14.4613 7.5 14.9586 7.5C15.4559 7.5 15.9328 7.69754 16.2845 8.04917C16.6361 8.40081 16.8336 8.87772 16.8336 9.375V10.875C16.8336 10.3777 17.0312 9.90081 17.3828 9.54917C17.7344 9.19754 18.2113 9 18.7086 9C19.2059 9 19.6828 9.19754 20.0345 9.54917C20.3861 9.90081 20.5836 10.3777 20.5836 10.875V14.25C20.5836 15.2349 20.3896 16.2102 20.0127 17.1201C19.6358 18.0301 19.0834 18.8569 18.3869 19.5533C17.6905 20.2497 16.8637 20.8022 15.9538 21.1791C15.0438 21.556 14.0685 21.75 13.0836 21.75C8.94175 21.75 7.85144 19.5 4.33488 13.3125Z" stroke="white" stroke-linecap="round" stroke-linejoin="round"/>
</g>
<defs>
<clipPath id="clip0_1433_18929">
<rect width="24" height="24" fill="white" transform="translate(0.333984)"/>
</clipPath>
</defs>
</svg>
