<svg width="17" height="12" viewBox="0 0 17 12" fill="none" xmlns="http://www.w3.org/2000/svg">
<path d="M16.2825 2.27992C16.0909 1.58391 15.5293 1.03526 14.8172 0.847852C13.5163 0.5 8.31231 0.5 8.31231 0.5C8.31231 0.5 3.10857 0.5 1.80761 0.834664C1.10918 1.02188 0.533941 1.58401 0.342364 2.27992C0 3.55114 0 6.1875 0 6.1875C0 6.1875 0 8.83714 0.342364 10.0951C0.534144 10.791 1.09548 11.3396 1.80771 11.527C3.12227 11.875 8.31252 11.875 8.31252 11.875C8.31252 11.875 13.5163 11.875 14.8172 11.5403C15.5294 11.353 16.0909 10.8044 16.2827 10.1085C16.6249 8.83714 16.6249 6.20089 16.6249 6.20089C16.6249 6.20089 16.6386 3.55114 16.2825 2.27992ZM6.65549 8.62306V3.75194L10.9828 6.1875L6.65549 8.62306Z" fill="white"/>
</svg>
